<svg xmlns="http://www.w3.org/2000/svg" viewBox="0 0 100 100"><path fill="#d3dff1" d="M79 47c5-3 9-8.5 9-14a5 5 0 0 0-8.535-3.536C77.569 31.36 75.603 34.78 70 34.978V33c0-11.046-8.954-20-20-20s-20 8.954-20 20v1.978c-5.603-.198-7.569-3.618-9.464-5.514A5 5 0 0 0 12 33c0 5.5 4 11 9 14 1.221.733 2.213 1.427 3 2.115 2.039 1.782 2.575 4.737 1.363 7.159L20 67s2 9 15 10c2.365 5.883 8.272 10 15 10s12.635-4.117 15-10c13-1 15-10 15-10l-5.363-10.726c-1.211-2.422-.676-5.377 1.363-7.159.787-.688 1.779-1.382 3-2.115z"/><path fill="#1f212b" d="M35.5 78a.5.5 0 0 1-.5-.5c0-5.023.983-8.032 1.025-8.158a.5.5 0 1 1 .949.317c-.009.029-.974 2.994-.974 7.841a.5.5 0 0 1-.5.5zM63.768 71a.497.497 0 0 1-.486-.386 13.005 13.005 0 0 0-.257-.959.5.5 0 0 1 .951-.311s.12.365.278 1.041a.5.5 0 0 1-.486.615zM64.5 78a.5.5 0 0 1-.5-.5c0-1.352-.074-2.678-.222-3.942a.502.502 0 0 1 .439-.555.503.503 0 0 1 .555.439A35.4 35.4 0 0 1 65 77.5a.5.5 0 0 1-.5.5z"/><path fill="#1f212b" d="M50 88c-6.762 0-12.985-4.017-15.686-10.056-13.041-1.272-15.204-10.336-15.291-10.727a.997.997 0 0 1 .082-.664l5.363-10.727c1.019-2.037.556-4.487-1.127-5.958-.732-.64-1.667-1.298-2.856-2.011C14.812 44.453 11 38.482 11 33c0-1.604.624-3.11 1.758-4.242C13.891 27.624 15.397 27 17 27s3.109.624 4.242 1.758c.326.326.654.694 1.002 1.085C23.763 31.552 25.467 33.47 29 33.9V33c0-11.579 9.421-21 21-21s21 9.421 21 21v.899c3.533-.43 5.237-2.348 6.756-4.057.348-.391.676-.759 1.002-1.085C79.891 27.624 81.397 27 83 27s3.109.624 4.242 1.758A5.952 5.952 0 0 1 89 33c0 5.482-3.812 11.453-9.485 14.857-1.189.713-2.124 1.371-2.856 2.011-1.683 1.471-2.146 3.921-1.127 5.958l5.363 10.727c.103.205.132.44.082.664-.087.392-2.25 9.455-15.291 10.728C62.985 83.983 56.762 88 50 88zM21.066 67.104c.49 1.552 3.183 8.066 14.011 8.899a1 1 0 0 1 .851.624C38.181 82.233 43.836 86 50 86s11.819-3.767 14.072-9.373a1 1 0 0 1 .851-.624c10.754-.827 13.511-7.378 14.009-8.903l-5.189-10.379c-1.426-2.852-.768-6.289 1.6-8.358.823-.719 1.852-1.445 3.144-2.22C83.578 43.087 87 37.806 87 33a3.971 3.971 0 0 0-1.172-2.828c-1.512-1.512-4.145-1.512-5.656 0-.3.3-.602.641-.921.999-1.734 1.952-4.11 4.626-9.216 4.807-.276.026-.534-.092-.729-.279a1 1 0 0 1-.306-.72V33c0-10.477-8.523-19-19-19s-19 8.523-19 19v1.979a1 1 0 0 1-.306.72c-.194.188-.451.307-.729.279-5.105-.181-7.481-2.854-9.216-4.807-.319-.358-.621-.699-.921-.999-1.512-1.512-4.145-1.512-5.656 0A3.971 3.971 0 0 0 13 33c0 4.806 3.422 10.087 8.515 13.143 1.292.774 2.32 1.501 3.144 2.22 2.367 2.069 3.025 5.507 1.6 8.358l-5.193 10.383zM79 47h.01H79z"/><path fill="#5c769b" d="M46.5 43.5c0 2.251 1.615 5 3.5 5s3.5-2.749 3.5-5h-7z"/><path fill="#1f212b" d="M50 49c-2.216 0-4-3.009-4-5.5a.5.5 0 0 1 .5-.5h7a.5.5 0 0 1 .5.5c0 2.491-1.784 5.5-4 5.5zm-2.972-5c.206 1.882 1.515 4 2.972 4s2.766-2.118 2.972-4h-5.944zM45.966 30.666c.019.109.034.219.034.334a2 2 0 1 1-4 0c0-.901.6-1.654 1.419-1.904A4.505 4.505 0 0 0 38 33.5c0 2.481 2.019 4.5 4.5 4.5s4.5-2.019 4.5-4.5c0-1.08-.398-2.058-1.034-2.834zM60.966 30.666c.019.109.034.219.034.334a2 2 0 1 1-4 0c0-.901.6-1.654 1.419-1.904A4.505 4.505 0 0 0 53 33.5c0 2.481 2.019 4.5 4.5 4.5s4.5-2.019 4.5-4.5c0-1.08-.398-2.058-1.034-2.834z"/></svg>