<?xml version="1.0" encoding="utf-8"?><svg xmlns="http://www.w3.org/2000/svg" xmlns:xlink="http://www.w3.org/1999/xlink"><symbol id="instagram" fill="none" viewBox="0 0 24 24"><path fill="currentColor" d="M12.002 21.041c-2.46 0-2.75-.013-3.71-.055a6.583 6.583 0 0 1-2.185-.45 4.619 4.619 0 0 1-2.63-2.631 6.591 6.591 0 0 1-.42-2.187c-.055-.958-.055-1.272-.055-3.713 0-2.467.013-2.755.056-3.71a6.59 6.59 0 0 1 .419-2.184A4.61 4.61 0 0 1 6.11 3.479a6.533 6.533 0 0 1 2.184-.42c.955-.054 1.269-.054 3.708-.054 2.48 0 2.765.013 3.71.054.749.014 1.49.156 2.19.42a4.615 4.615 0 0 1 2.633 2.632c.267.71.41 1.46.421 2.217.056.958.056 1.271.056 3.711s-.014 2.76-.056 3.707a6.603 6.603 0 0 1-.42 2.189 4.624 4.624 0 0 1-2.634 2.632c-.7.262-1.439.404-2.186.419-.955.055-1.268.055-3.714.055zm-.034-16.453c-2.446 0-2.7.012-3.655.055a4.99 4.99 0 0 0-1.669.311 2.99 2.99 0 0 0-1.719 1.712c-.2.54-.305 1.111-.311 1.687-.053.969-.053 1.223-.053 3.652 0 2.4.009 2.691.053 3.654.009.57.114 1.135.311 1.67.306.787.93 1.409 1.719 1.711a4.92 4.92 0 0 0 1.669.311c.968.056 1.223.056 3.655.056 2.453 0 2.707-.012 3.654-.056a4.962 4.962 0 0 0 1.67-.311 3 3 0 0 0 1.71-1.709c.2-.54.305-1.112.311-1.688h.011c.043-.956.043-1.211.043-3.654 0-2.443-.011-2.7-.054-3.655a5.06 5.06 0 0 0-.311-1.668 3 3 0 0 0-1.71-1.712 4.94 4.94 0 0 0-1.67-.311c-.967-.055-1.22-.055-3.654-.055zm.034 12.036A4.623 4.623 0 1 1 16.622 12a4.63 4.63 0 0 1-4.62 4.624zm0-7.626a3 3 0 1 0 3 3 3.007 3.007 0 0 0-3-3zm4.8-.713a1.078 1.078 0 1 1 .008-2.156 1.078 1.078 0 0 1-.008 2.156z"/></symbol><symbol viewBox="0 0 32 32" id="telegram" fill="currentColor"><path d="M26.07 3.996a2.974 2.974 0 0 0-.933.223h-.004c-.285.113-1.64.683-3.7 1.547l-7.382 3.109c-5.297 2.23-10.504 4.426-10.504 4.426l.062-.024s-.359.118-.734.375a2.03 2.03 0 0 0-.586.567c-.184.27-.332.683-.277 1.11.09.722.558 1.155.894 1.394.34.242.664.355.664.355h.008l4.883 1.645c.219.703 1.488 4.875 1.793 5.836.18.574.355.933.574 1.207.106.14.23.257.379.351a1.119 1.119 0 0 0 .246.106l-.05-.012c.015.004.027.016.038.02.04.011.067.015.118.023.773.234 1.394-.246 1.394-.246l.035-.028 2.883-2.625 4.832 3.707.11.047c1.007.442 2.027.196 2.566-.238.543-.437.754-.996.754-.996l.035-.09 3.734-19.129c.106-.472.133-.914.016-1.343a1.807 1.807 0 0 0-.781-1.047 1.872 1.872 0 0 0-1.067-.27Zm-.101 2.05c-.004.063.008.056-.02.177v.011l-3.699 18.93c-.016.027-.043.086-.117.145-.078.062-.14.101-.465-.028l-5.91-4.531-3.57 3.254.75-4.79 9.656-9c.398-.37.265-.448.265-.448.028-.454-.601-.133-.601-.133l-12.176 7.543-.004-.02-5.836-1.965v-.004l-.015-.003a.27.27 0 0 0 .03-.012l.032-.016.031-.011s5.211-2.196 10.508-4.426c2.652-1.117 5.324-2.242 7.379-3.11 2.055-.863 3.574-1.496 3.66-1.53.082-.032.043-.032.102-.032Z"/></symbol></svg>
